<svg xmlns="http://www.w3.org/2000/svg" viewBox="0 0 150.01 21.436">
  <defs>
    <style>
      .cls-1 {
        fill: #648ca5;
      }
    </style>
  </defs>
  <g id="Group_32" data-name="Group 32" transform="translate(-0.09)">
    <path id="Path_35" data-name="Path 35" d="M4.157,10.543c0,.118-.024.213-.024.331L3.991,20.3c0,.544-.024,1.087-.024,1.654,0,.473-.165.638-.638.638H.706c-.5,0-.638-.118-.614-.638.024-1.3.071-2.6.118-3.9C.3,14.8.4,11.512.494,8.25c.024-1.8.095-3.592.142-5.388.024-.5.165-.662.685-.662H2.691a.758.758,0,0,1,.709.4C4.062,3.76,4.747,4.918,5.409,6.1c.9,1.536,1.8,3.1,2.67,4.632.851,1.465,1.7,2.954,2.552,4.419.071.142.165.26.26.425.213-.355.4-.685.591-.993.851-1.465,1.725-2.907,2.576-4.372l3.119-5.318c.449-.756.9-1.513,1.323-2.269a.79.79,0,0,1,.733-.425h1.323c.52,0,.685.165.709.685.047,1.442.095,2.883.142,4.349l.213,7.728c.071,2.292.142,4.585.189,6.854.024.662-.095.756-.756.756H18.619c-.567,0-.685-.118-.709-.685-.047-2.718-.071-5.436-.118-8.154l-.071-2.978c0-.071-.024-.165-.024-.236-.024,0-.047,0-.047-.024-.165.284-.331.544-.5.827-.9,1.56-1.8,3.12-2.67,4.679-.685,1.205-1.394,2.434-2.08,3.64a.877.877,0,0,1-.874.52c-.473-.024-.969-.024-1.465,0a.756.756,0,0,1-.709-.425C8.127,17.515,6.874,15.269,5.622,13c-.449-.8-.9-1.583-1.323-2.387a.123.123,0,0,1-.047-.095A.179.179,0,0,1,4.157,10.543Z" transform="translate(0 -1.68)"/>
    <path id="Path_36" data-name="Path 36" d="M227.644,14.761c0-.095.024-.189.024-.284V2.094c0-.449.189-.614.638-.614h2.647c.473,0,.662.189.662.685V21.426c0,.5-.165.662-.662.662h-1.134a.91.91,0,0,1-.78-.355c-.874-.993-1.772-1.985-2.647-2.954-1.891-2.127-3.781-4.23-5.648-6.357-1.087-1.229-2.174-2.434-3.261-3.663a1.311,1.311,0,0,1-.142-.189.087.087,0,0,0-.071.024.69.69,0,0,0-.047.213V21.024a1.309,1.309,0,0,1-.047.425.436.436,0,0,1-.449.378h-2.954a.474.474,0,0,1-.473-.473V1.786c.024-.331.189-.544.52-.544a13.257,13.257,0,0,1,1.371,0,.97.97,0,0,1,.709.378c1.465,1.654,2.93,3.309,4.4,4.939q3.58,4.006,7.137,8.035c.047.047.071.118.118.165C227.6,14.785,227.621,14.761,227.644,14.761Z" transform="translate(-162.826 -0.935)"/>
    <path id="Path_37" data-name="Path 37" d="M556.6,12.386V2.673a.485.485,0,0,1,.449-.473h.142c2.6,0,5.223,0,7.822.024a10.567,10.567,0,0,1,2.977.449,9.584,9.584,0,0,1,4.75,2.907,8.943,8.943,0,0,1,1.512,2.434,10.871,10.871,0,0,1,.827,3.663,13.346,13.346,0,0,1-.165,2.907,10.931,10.931,0,0,1-.827,2.576,8.977,8.977,0,0,1-2.576,3.214,10.779,10.779,0,0,1-2.316,1.347,12.356,12.356,0,0,1-4.8.9h-7.137A.97.97,0,0,1,557,22.6a.475.475,0,0,1-.4-.425v-.355Q556.6,17.066,556.6,12.386Zm3.97,0v6.287c0,.4,0,.4.378.4h3.025a8.807,8.807,0,0,0,2.93-.425,5.838,5.838,0,0,0,2.481-1.56,6.253,6.253,0,0,0,1.607-3.616,7.819,7.819,0,0,0-.567-4.16A5.672,5.672,0,0,0,567.73,6.5a7.145,7.145,0,0,0-3.048-.733c-1.252-.024-2.5-.024-3.757-.024-.354,0-.354,0-.354.355Z" transform="translate(-424.998 -1.68)"/>
    <path id="Path_38" data-name="Path 38" d="M313.552,14.093V22.01c0,.26-.047.5-.307.591a.6.6,0,0,1-.284.047h-2.812c-.378,0-.544-.165-.567-.544V6.058c.024-.189-.071-.26-.26-.26h-6.1a.429.429,0,0,1-.425-.449v-2.6a.434.434,0,0,1,.449-.449H319.6c.567,0,.733.165.733.733v2.08a.723.723,0,0,1-.071.4.962.962,0,0,1-.331.284.871.871,0,0,1-.354.024h-5.553c-.425,0-.425,0-.425.4C313.552,8.847,313.552,11.47,313.552,14.093Z" transform="translate(-231.175 -1.756)"/>
    <path id="Path_39" data-name="Path 39" d="M486.624,12.462V3.08c0-.662.118-.78.78-.78h2.458c.614,0,.756.142.756.756V18.773c0,.425-.071.4.4.4H500a.44.44,0,0,1,.449.473V22.2a.486.486,0,0,1-.449.473,1.331,1.331,0,0,1-.307,0H487.356a1.56,1.56,0,0,1-.331-.024.48.48,0,0,1-.425-.449v-.355C486.624,18.725,486.624,15.582,486.624,12.462Z" transform="translate(-371.54 -1.756)"/>
    <path id="Path_40" data-name="Path 40" d="M117.229,21.436A10.718,10.718,0,1,1,127.957,10.73,10.736,10.736,0,0,1,117.229,21.436Zm0-17.418a6.712,6.712,0,1,0,6.711,6.712A6.722,6.722,0,0,0,117.229,4.018Z" transform="translate(-81.264)"/>
    <path id="Path_41" data-name="Path 41" class="cls-1" d="M117.229,56.03A10.736,10.736,0,0,1,106.5,45.3h4.017a6.722,6.722,0,0,0,6.711,6.712Z" transform="translate(-81.264 -34.594)"/>
    <path id="Path_42" data-name="Path 42" d="M393.629,21.436A10.718,10.718,0,1,1,404.357,10.73,10.736,10.736,0,0,1,393.629,21.436Zm0-17.418a6.712,6.712,0,1,0,6.711,6.712A6.722,6.722,0,0,0,393.629,4.018Z" transform="translate(-292.346)"/>
    <path id="Path_43" data-name="Path 43" class="cls-1" d="M438.929,10.73h-4.017A6.722,6.722,0,0,0,428.2,4.018V0A10.721,10.721,0,0,1,438.929,10.73Z" transform="translate(-326.941)"/>
  </g>
</svg>
